<?xml version="1.0" encoding="UTF-8"?><svg id="a" xmlns="http://www.w3.org/2000/svg" viewBox="0 0 538.67 70"><defs><style>.b{fill:#6c86ad;}.c{fill:#2e86ce;}.d{fill:#0d3d72;}</style></defs><polygon class="d" points="529.55 36.02 511.35 20.7 509.99 22.09 506.07 22.09 506.07 26.09 522.93 40.09 510.92 49.98 506.07 49.98 506.07 53.98 511.35 59.36 534.28 40.03 534.3 40.03 534.3 36.02 529.55 36.02"/><polygon class="d" points="453.2 23.97 451.13 43.46 450.48 48.94 448.88 44 445.16 33.55 438.83 33.55 435.35 44.07 433.96 48.87 433.38 43.53 430.89 23.97 430.89 19.97 422.99 19.97 422.99 23.97 427.9 58.58 437.16 58.58 440.7 47.72 441.83 43.8 442.95 47.61 446.63 58.58 455.86 58.58 460.73 23.97 460.73 19.97 453.2 19.97 453.2 23.97"/><polygon class="d" points="489.83 10.45 487.3 10.45 465.24 61.9 463.52 61.9 463.52 65.9 469.1 65.9 471.6 65.9 495.41 10.45 495.41 6.45 489.83 6.45 489.83 10.45"/><polygon class="d" points="27.26 20.7 9.06 36.02 4.3 36.02 4.3 40.03 4.33 40.03 27.26 59.36 32.58 53.98 32.58 49.98 27.76 49.98 15.68 39.95 32.58 26.09 32.58 22.09 28.63 22.09 27.26 20.7"/><path class="d" d="m68,13.77c-.86-.12-1.74-.21-2.64-.26s-1.86-.07-2.88-.07c-3.16,0-6,.53-8.53,1.58s-4.68,2.59-6.45,4.6c-1.77,2.01-3.13,4.47-4.09,7.39-.63,1.93-1.03,4.07-1.25,6.37h-.18v4.31h.02c.05,3.37.47,6.36,1.29,8.94.87,2.76,2.16,5.07,3.85,6.93,1.69,1.86,3.77,3.26,6.23,4.21,2.46.94,5.3,1.41,8.5,1.41,2,0,3.92-.19,5.77-.58,1.85-.39,3.76-.98,5.74-1.77v-7.83c-.75.34-1.56.68-2.44,1-.87.33-1.76.61-2.66.85-.9.24-1.78.43-2.66.58-.87.15-1.69.22-2.44.22-2.09,0-3.89-.35-5.42-1.04-1.52-.69-2.77-1.7-3.75-3.01s-1.7-2.92-2.16-4.82c-.47-1.9-.7-4.05-.7-6.45,0-2.27.23-4.35.68-6.25s1.16-3.53,2.13-4.9c.97-1.37,2.2-2.44,3.7-3.2,1.5-.76,3.3-1.14,5.42-1.14,1.43,0,3.02.19,4.77.58,1.75.39,3.59,1.03,5.52,1.94v-8.31c-.95-.32-1.87-.58-2.76-.78-.89-.2-1.76-.37-2.62-.49Z"/><path class="d" d="m113.43,40.77v-3.52h-.23c-.18-1.41-.47-2.72-.87-3.92-.74-2.21-1.81-4.07-3.22-5.57-1.41-1.5-3.12-2.63-5.14-3.39-2.02-.76-4.33-1.14-6.91-1.14s-5.04.44-7.15,1.31c-2.11.87-3.9,2.11-5.36,3.7-1.46,1.59-2.59,3.51-3.37,5.76-.36,1.03-.63,2.12-.82,3.26h-.35v4.36h0c.01,2.92.38,5.49,1.12,7.7.75,2.24,1.83,4.1,3.24,5.59s3.12,2.61,5.14,3.36c2.02.75,4.31,1.12,6.88,1.12,2.7,0,5.11-.44,7.22-1.33s3.89-2.13,5.35-3.75c1.45-1.61,2.57-3.55,3.34-5.81.71-2.09,1.08-4.39,1.14-6.88h.01v-.38c0-.07,0-.14,0-.21,0-.08,0-.15,0-.23Zm-9.12,4.77c-.32,1.34-.79,2.5-1.43,3.49-.64.99-1.46,1.76-2.49,2.32s-2.23.83-3.61.83c-2.52,0-4.51-.91-5.96-2.74-1.45-1.83-2.18-4.55-2.18-8.16,0-1.5.15-2.91.46-4.22.31-1.32.79-2.47,1.45-3.46s1.5-1.77,2.52-2.33,2.26-.85,3.71-.85c2.63,0,4.63.9,5.98,2.71,1.35,1.81,2.03,4.5,2.03,8.09,0,1.54-.16,2.99-.48,4.33Z"/><path class="d" d="m146.92,26.55c-.89-1.06-1.99-1.87-3.3-2.45-1.32-.58-2.86-.87-4.63-.87-1.27,0-2.42.14-3.44.41-1.02.27-1.98.66-2.86,1.18-.89.51-1.71,1.13-2.47,1.86-.76.73-1.49,1.53-2.2,2.42l-.2-5.11h-7.19v34.61h8.31v-21.9c1.43-1.95,2.79-3.5,4.07-4.63,1.28-1.14,2.63-1.7,4.04-1.7,2.82,0,4.22,1.9,4.22,5.69v22.55h8.31v-23.23c0-1.84-.22-3.5-.66-4.99-.44-1.49-1.11-2.76-1.99-3.81Z"/><path class="d" d="m174.07,12.9l-8.52,2.21v8.86h-9.3v6.47h9.3v16.89c0,2.09.26,3.89.77,5.4s1.31,2.75,2.38,3.73,2.44,1.7,4.09,2.18,3.6.72,5.88.72c1.36,0,2.8-.1,4.33-.31,1.52-.2,3.03-.48,4.53-.82v-6.64c-1.07.3-2.25.56-3.54.78-1.29.23-2.62.34-3.99.34-2.13,0-3.66-.51-4.56-1.52s-1.36-2.5-1.36-4.48v-16.28h13.45v-6.47h-13.45v-11.07Z"/><path class="d" d="m225.35,26.8c-.92-1.18-2.06-2.07-3.41-2.67-1.35-.6-2.9-.9-4.65-.9-1.27,0-2.44.14-3.51.41-1.07.27-2.04.66-2.91,1.18-.87.51-1.67,1.12-2.38,1.82-.72.7-1.36,1.5-1.92,2.38l-.31-5.04h-7.53v34.61h8.52v-21.9c1.57-2.32,3-3.98,4.31-4.99,1.31-1.01,2.57-1.52,3.8-1.52.7,0,1.33.14,1.87.41.54.27,1,.7,1.38,1.29.37.59.65,1.34.82,2.25s.23,2.01.19,3.3h8.35c.07-2.34-.12-4.4-.56-6.18-.44-1.78-1.12-3.26-2.04-4.45Z"/><path class="d" d="m266.84,40.77v-3.52h-.23c-.18-1.41-.47-2.72-.87-3.92-.74-2.21-1.81-4.07-3.22-5.57-1.41-1.5-3.12-2.63-5.14-3.39-2.02-.76-4.33-1.14-6.91-1.14s-5.04.44-7.15,1.31c-2.11.87-3.9,2.11-5.36,3.7-1.46,1.59-2.59,3.51-3.37,5.76-.36,1.03-.63,2.12-.82,3.26h-.35v4.36h0c.01,2.92.38,5.49,1.12,7.7.75,2.24,1.83,4.1,3.24,5.59,1.41,1.49,3.12,2.61,5.14,3.36,2.02.75,4.31,1.12,6.88,1.12,2.7,0,5.11-.44,7.22-1.33,2.11-.89,3.89-2.13,5.35-3.75s2.57-3.55,3.34-5.81c.71-2.09,1.08-4.39,1.14-6.88h.01v-.38c0-.07,0-.14,0-.21,0-.08,0-.15,0-.23Zm-9.12,4.76c-.32,1.34-.79,2.5-1.43,3.49s-1.46,1.76-2.49,2.32-2.23.83-3.61.83c-2.52,0-4.51-.91-5.96-2.74-1.45-1.83-2.18-4.55-2.18-8.16,0-1.5.15-2.91.46-4.22.31-1.32.79-2.47,1.45-3.46.66-.99,1.5-1.77,2.52-2.33s2.26-.85,3.71-.85c2.63,0,4.63.9,5.98,2.71,1.35,1.81,2.03,4.5,2.03,8.09,0,1.54-.16,2.99-.48,4.33Z"/><polygon class="d" points="293.73 10.45 275.44 10.45 275.44 16.92 285.21 16.92 285.21 52.11 274.24 52.11 274.24 58.58 303.71 58.58 303.71 52.11 293.73 52.11 293.73 10.45"/><polygon class="d" points="313.93 58.58 322.44 58.58 322.44 40.36 339.27 40.36 339.27 33.48 322.44 33.48 322.44 21.15 340.22 21.15 340.22 14.06 313.93 14.06 313.93 58.58"/><polygon class="d" points="370.43 10.45 352.14 10.45 352.14 16.92 361.92 16.92 361.92 52.11 350.95 52.11 350.95 58.58 380.41 58.58 380.41 52.11 370.43 52.11 370.43 10.45"/><path class="d" d="m420.26,40.89v-3.64h-.24c-.18-1.41-.47-2.72-.87-3.92-.74-2.21-1.81-4.07-3.22-5.57-1.41-1.5-3.12-2.63-5.14-3.39-2.02-.76-4.33-1.14-6.91-1.14s-5.04.44-7.15,1.31c-2.11.87-3.9,2.11-5.36,3.7-1.46,1.59-2.59,3.51-3.37,5.76-.36,1.03-.63,2.12-.82,3.26h-.35v4.13s0,.07,0,.11c0,.04,0,.08,0,.12h0s0,0,0,0c.01,2.92.38,5.49,1.12,7.7.75,2.24,1.83,4.1,3.24,5.59,1.41,1.49,3.12,2.61,5.14,3.36,2.02.75,4.31,1.12,6.88,1.12,2.7,0,5.11-.44,7.22-1.33s3.89-2.13,5.35-3.75,2.57-3.55,3.34-5.81c.71-2.09,1.08-4.39,1.14-6.88h.02v-.49s0-.07,0-.11c0-.04,0-.08,0-.12Zm-9.12,4.65c-.32,1.34-.79,2.5-1.43,3.49-.64.99-1.46,1.76-2.49,2.32s-2.23.83-3.61.83c-2.52,0-4.51-.91-5.96-2.74-1.45-1.83-2.18-4.55-2.18-8.16,0-1.5.15-2.91.46-4.22.31-1.32.79-2.47,1.45-3.46.66-.99,1.5-1.77,2.52-2.33,1.02-.57,2.26-.85,3.71-.85,2.63,0,4.63.9,5.98,2.71,1.35,1.81,2.03,4.5,2.03,8.09,0,1.54-.16,2.99-.48,4.33Z"/><path class="b" d="m27.26,55.36L4.3,36.02l22.96-19.31,5.31,5.38-16.89,13.86,16.89,14.03-5.31,5.38Z"/><path class="b" d="m471.6,61.9h-8.07l23.78-55.45h8.11l-23.81,55.45Z"/><path class="b" d="m511.35,16.7l22.96,19.31-22.96,19.35-5.28-5.38,16.86-13.9-16.86-14,5.28-5.38Z"/><path class="c" d="m73.38,52.84c-1.98.79-3.89,1.39-5.74,1.77s-3.78.58-5.77.58c-3.2,0-6.03-.47-8.5-1.41s-4.54-2.34-6.23-4.21-2.97-4.17-3.85-6.93-1.31-5.97-1.31-9.62.48-7.08,1.43-10,2.32-5.38,4.09-7.39,3.92-3.54,6.45-4.6c2.53-1.06,5.38-1.58,8.53-1.58,1.02,0,1.98.02,2.88.07s1.78.13,2.64.26,1.74.29,2.62.49,1.81.47,2.76.78v8.31c-1.93-.91-3.77-1.56-5.52-1.94s-3.34-.58-4.77-.58c-2.11,0-3.92.38-5.42,1.14s-2.73,1.83-3.7,3.2-1.67,3.01-2.13,4.9-.68,3.98-.68,6.25c0,2.41.23,4.56.7,6.45s1.19,3.5,2.16,4.82,2.23,2.32,3.75,3.01,3.33,1.04,5.42,1.04c.75,0,1.56-.07,2.44-.22s1.76-.34,2.66-.58,1.78-.52,2.66-.85,1.69-.66,2.44-1v7.83Z"/><path class="c" d="m113.44,37.01c0,2.72-.39,5.22-1.16,7.48s-1.88,4.2-3.34,5.81-3.24,2.86-5.35,3.75-4.52,1.33-7.22,1.33-4.86-.37-6.88-1.12-3.74-1.87-5.14-3.36-2.49-3.35-3.24-5.59-1.12-4.84-1.12-7.82c0-2.75.39-5.25,1.18-7.49s1.91-4.17,3.37-5.76,3.25-2.82,5.36-3.7,4.5-1.31,7.15-1.31,4.89.38,6.91,1.14,3.74,1.89,5.14,3.39,2.48,3.36,3.22,5.57,1.11,4.77,1.11,7.68Zm-8.65.2c0-3.59-.68-6.28-2.03-8.09s-3.34-2.71-5.98-2.71c-1.45,0-2.69.28-3.71.85s-1.86,1.35-2.52,2.33-1.14,2.14-1.45,3.46-.46,2.72-.46,4.22c0,3.61.73,6.33,2.18,8.16s3.44,2.74,5.96,2.74c1.39,0,2.59-.28,3.61-.83s1.85-1.33,2.49-2.32,1.11-2.15,1.43-3.49.48-2.78.48-4.33Z"/><path class="c" d="m141.27,54.58v-22.55c0-3.79-1.41-5.69-4.22-5.69-1.41,0-2.75.57-4.04,1.7s-2.64,2.68-4.07,4.63v21.9h-8.31V19.97h7.19l.2,5.11c.7-.89,1.44-1.69,2.2-2.42s1.58-1.35,2.47-1.86,1.84-.9,2.86-1.18,2.17-.41,3.44-.41c1.77,0,3.32.29,4.63.87s2.42,1.4,3.3,2.45,1.55,2.33,1.99,3.81.66,3.15.66,4.99v23.23h-8.31Z"/><path class="c" d="m187.52,54.24c-1.5.34-3.01.61-4.53.82s-2.96.31-4.33.31c-2.27,0-4.23-.24-5.88-.72s-3.01-1.2-4.09-2.18-1.87-2.22-2.38-3.73-.77-3.31-.77-5.4v-16.89h-9.3v-6.47h9.3v-8.86l8.52-2.21v11.07h13.45v6.47h-13.45v16.28c0,1.98.45,3.47,1.36,4.48s2.43,1.52,4.56,1.52c1.36,0,2.69-.11,3.99-.34s2.48-.49,3.54-.78v6.64Z"/><path class="c" d="m219.61,33.43c.05-1.29-.02-2.4-.19-3.3s-.44-1.66-.82-2.25-.83-1.02-1.38-1.29-1.17-.41-1.87-.41c-1.23,0-2.49.51-3.8,1.52s-2.74,2.67-4.31,4.99v21.9h-8.52V19.97h7.53l.31,5.04c.57-.89,1.21-1.68,1.92-2.38s1.51-1.31,2.38-1.82,1.85-.9,2.91-1.18,2.24-.41,3.51-.41c1.75,0,3.3.3,4.65.9s2.49,1.49,3.41,2.67,1.6,2.66,2.04,4.45.63,3.84.56,6.18h-8.35Z"/><path class="c" d="m266.85,37.01c0,2.72-.39,5.22-1.16,7.48s-1.88,4.2-3.34,5.81-3.24,2.86-5.35,3.75-4.52,1.33-7.22,1.33-4.86-.37-6.88-1.12-3.74-1.87-5.14-3.36-2.49-3.35-3.24-5.59-1.12-4.84-1.12-7.82c0-2.75.39-5.25,1.18-7.49s1.91-4.17,3.37-5.76,3.25-2.82,5.36-3.7,4.5-1.31,7.15-1.31,4.89.38,6.91,1.14,3.74,1.89,5.14,3.39,2.48,3.36,3.22,5.57,1.11,4.77,1.11,7.68Zm-8.65.2c0-3.59-.68-6.28-2.03-8.09s-3.34-2.71-5.98-2.71c-1.45,0-2.69.28-3.71.85s-1.86,1.35-2.52,2.33-1.14,2.14-1.45,3.46-.46,2.72-.46,4.22c0,3.61.73,6.33,2.18,8.16s3.44,2.74,5.96,2.74c1.39,0,2.59-.28,3.61-.83s1.85-1.33,2.49-2.32,1.11-2.15,1.43-3.49.48-2.78.48-4.33Z"/><path class="c" d="m285.21,12.92h-9.78v-6.47h18.29v41.66h9.98v6.47h-29.46v-6.47h10.97V12.92Z"/><path class="c" d="m322.44,17.15v12.33h16.83v6.88h-16.83v18.22h-8.52V10.06h26.3v7.08h-17.78Z"/><path class="c" d="m361.92,12.92h-9.78v-6.47h18.29v41.66h9.98v6.47h-29.46v-6.47h10.97V12.92Z"/><path class="c" d="m420.27,37.01c0,2.72-.39,5.22-1.16,7.48s-1.88,4.2-3.34,5.81-3.24,2.86-5.35,3.75-4.52,1.33-7.22,1.33-4.86-.37-6.88-1.12-3.74-1.87-5.14-3.36-2.49-3.35-3.24-5.59-1.12-4.84-1.12-7.82c0-2.75.39-5.25,1.18-7.49s1.91-4.17,3.37-5.76,3.25-2.82,5.36-3.7,4.5-1.31,7.15-1.31,4.89.38,6.91,1.14,3.74,1.89,5.14,3.39,2.48,3.36,3.22,5.57,1.11,4.77,1.11,7.68Zm-8.65.2c0-3.59-.68-6.28-2.03-8.09s-3.34-2.71-5.98-2.71c-1.45,0-2.69.28-3.71.85s-1.86,1.35-2.52,2.33-1.14,2.14-1.45,3.46-.46,2.72-.46,4.22c0,3.61.73,6.33,2.18,8.16s3.44,2.74,5.96,2.74c1.39,0,2.59-.28,3.61-.83s1.85-1.33,2.49-2.32,1.11-2.15,1.43-3.49.48-2.78.48-4.33Z"/><path class="c" d="m455.86,54.58h-9.23l-3.68-10.97-1.12-3.81-1.12,3.92-3.54,10.87h-9.26l-4.9-34.61h7.9l2.49,19.55.58,5.35,1.4-4.8,3.47-10.53h6.34l3.71,10.46,1.6,4.94.65-5.48,2.08-19.48h7.53l-4.87,34.61Z"/></svg>